<?xml version="1.0" encoding="UTF-8" standalone="no"?>
<!-- Created with Inkscape (http://www.inkscape.org/) -->

<svg
   xmlns:dc="http://purl.org/dc/elements/1.1/"
   xmlns:cc="http://creativecommons.org/ns#"
   xmlns:rdf="http://www.w3.org/1999/02/22-rdf-syntax-ns#"
   xmlns:svg="http://www.w3.org/2000/svg"
   xmlns="http://www.w3.org/2000/svg"
   xmlns:xlink="http://www.w3.org/1999/xlink"
   xmlns:sodipodi="http://sodipodi.sourceforge.net/DTD/sodipodi-0.dtd"
   xmlns:inkscape="http://www.inkscape.org/namespaces/inkscape"
   width="640"
   height="320"
   viewBox="0 0 169.33333 84.666669"
   version="1.1"
   id="svg8"
   inkscape:version="0.92.1 r"
   sodipodi:docname="drawing.svg"
   inkscape:export-filename="/home/petervaro/documents/personal/remote/sodyll/img/logo.png"
   inkscape:export-xdpi="96"
   inkscape:export-ydpi="96">
  <defs
     id="defs2">
    <linearGradient
       inkscape:collect="always"
       id="linearGradient4639">
      <stop
         style="stop-color:#4f3343;stop-opacity:1"
         offset="0"
         id="stop4635" />
      <stop
         style="stop-color:#687d9d;stop-opacity:1"
         offset="1"
         id="stop4637" />
    </linearGradient>
    <linearGradient
       inkscape:collect="always"
       id="linearGradient4620">
      <stop
         style="stop-color:#000000;stop-opacity:1;"
         offset="0"
         id="stop4616" />
      <stop
         style="stop-color:#000000;stop-opacity:0;"
         offset="1"
         id="stop4618" />
    </linearGradient>
    <linearGradient
       inkscape:collect="always"
       xlink:href="#linearGradient4620"
       id="linearGradient4628"
       x1="92.375732"
       y1="62.876888"
       x2="111.57813"
       y2="62.876888"
       gradientUnits="userSpaceOnUse" />
    <linearGradient
       inkscape:collect="always"
       xlink:href="#linearGradient4620"
       id="linearGradient4632"
       x1="46.287411"
       y1="67.728615"
       x2="65.591423"
       y2="67.728615"
       gradientUnits="userSpaceOnUse" />
    <linearGradient
       inkscape:collect="always"
       xlink:href="#linearGradient4639"
       id="linearGradient4641"
       x1="102.03983"
       y1="92.813225"
       x2="102.03983"
       y2="36.125359"
       gradientUnits="userSpaceOnUse"
       gradientTransform="translate(-196.58542,-33.3375)" />
    <filter
       style="color-interpolation-filters:sRGB"
       inkscape:label="Drop Shadow"
       id="filter4887">
      <feFlood
         flood-opacity="0.501961"
         flood-color="rgb(0,0,0)"
         result="flood"
         id="feFlood4877" />
      <feComposite
         in="SourceGraphic"
         in2="flood"
         operator="in"
         result="composite1"
         id="feComposite4879" />
      <feGaussianBlur
         in="composite1"
         stdDeviation="5"
         result="blur"
         id="feGaussianBlur4881" />
      <feOffset
         dx="0"
         dy="3"
         result="offset"
         id="feOffset4883" />
      <feComposite
         in="offset"
         in2="SourceGraphic"
         operator="out"
         result="composite2"
         id="feComposite4885" />
    </filter>
    <linearGradient
       gradientTransform="translate(-31.928866,184.5102)"
       inkscape:collect="always"
       xlink:href="#linearGradient4639"
       id="linearGradient4641-5"
       x1="102.03983"
       y1="92.813225"
       x2="102.03983"
       y2="36.125359"
       gradientUnits="userSpaceOnUse" />
    <filter
       style="color-interpolation-filters:sRGB"
       inkscape:label="Drop Shadow"
       id="filter4995"
       x="-0.15000001"
       width="1.3"
       height="1.3"
       y="-0.1">
      <feFlood
         flood-opacity="0.454902"
         flood-color="rgb(0,0,0)"
         result="flood"
         id="feFlood4985" />
      <feComposite
         in="SourceGraphic"
         in2="flood"
         operator="in"
         result="composite1"
         id="feComposite4987" />
      <feGaussianBlur
         in="composite1"
         stdDeviation="2.3"
         result="blur"
         id="feGaussianBlur4989" />
      <feOffset
         dx="0"
         dy="3"
         result="offset"
         id="feOffset4991" />
      <feComposite
         in="offset"
         in2="SourceGraphic"
         operator="out"
         result="composite2"
         id="feComposite4993" />
    </filter>
    <filter
       style="color-interpolation-filters:sRGB"
       inkscape:label="Drop Shadow"
       id="filter5259">
      <feFlood
         flood-opacity="0.454902"
         flood-color="rgb(0,0,0)"
         result="flood"
         id="feFlood5249" />
      <feComposite
         in="SourceGraphic"
         in2="flood"
         operator="in"
         result="composite1"
         id="feComposite5251" />
      <feGaussianBlur
         in="composite1"
         stdDeviation="2.4"
         result="blur"
         id="feGaussianBlur5253" />
      <feOffset
         dx="0"
         dy="1.2"
         result="offset"
         id="feOffset5255" />
      <feComposite
         in="offset"
         in2="SourceGraphic"
         operator="out"
         result="composite2"
         id="feComposite5257" />
    </filter>
    <filter
       inkscape:label="In and Out"
       inkscape:menu="Shadows and Glows"
       inkscape:menu-tooltip="Inner colorized shadow, outer black shadow"
       style="color-interpolation-filters:sRGB"
       id="filter5291">
      <feGaussianBlur
         result="result0"
         in="SourceAlpha"
         stdDeviation="4"
         id="feGaussianBlur5285" />
      <feOffset
         dx="5"
         dy="5"
         result="result4"
         id="feOffset5287" />
      <feComposite
         in="SourceGraphic"
         in2="result4"
         operator="xor"
         result="result3"
         id="feComposite5289" />
    </filter>
  </defs>
  <sodipodi:namedview
     id="base"
     pagecolor="#ffffff"
     bordercolor="#666666"
     borderopacity="1.0"
     inkscape:pageopacity="0.0"
     inkscape:pageshadow="2"
     inkscape:zoom="1"
     inkscape:cx="0.86369156"
     inkscape:cy="207.46296"
     inkscape:document-units="px"
     inkscape:current-layer="layer1"
     showgrid="false"
     showguides="true"
     inkscape:guide-bbox="true"
     inkscape:showpageshadow="false"
     inkscape:snap-grids="true"
     inkscape:snap-others="false"
     inkscape:object-nodes="false"
     inkscape:snap-nodes="false"
     inkscape:snap-global="false"
     inkscape:snap-bbox="true"
     inkscape:snap-to-guides="true"
     inkscape:window-width="2560"
     inkscape:window-height="1437"
     inkscape:window-x="0"
     inkscape:window-y="0"
     inkscape:window-maximized="1"
     units="px" />
  <metadata
     id="metadata5">
    <rdf:RDF>
      <cc:Work
         rdf:about="">
        <dc:format>image/svg+xml</dc:format>
        <dc:type
           rdf:resource="http://purl.org/dc/dcmitype/StillImage" />
        <dc:title></dc:title>
      </cc:Work>
    </rdf:RDF>
  </metadata>
  <g
     inkscape:label="Layer 1"
     inkscape:groupmode="layer"
     id="layer1"
     transform="translate(0,-212.33332)">
    <path
       inkscape:connector-curvature="0"
       id="path4513-6-7"
       style="fill:url(#linearGradient4641-5);fill-opacity:1;fill-rule:evenodd;stroke:none;stroke-width:0.23319983px;stroke-linecap:butt;stroke-linejoin:miter;stroke-opacity:1;filter:url(#filter4995)"
       d="m 118.41249,226.89315 v 41.89027 h -2.333 l 5.83909,4.57563 5.83961,-4.57563 h -2.33299 v -41.89027 z m -7.6064,-5.90485 -5.71024,4.47466 h 2.28151 v 41.74556 h 6.85798 v -41.74556 h 2.28151 z m -7.7412,46.80375 c 0,2.86836 -1.52929,5.96303 -3.352804,7.44507 -2.20418,1.79143 -4.20679,2.29484 -6.6548,2.29484 -4.52849,0 -7.38334,-3.03465 -9.0424,-6.01454 0.64347,-0.33867 1.64253,-0.82973 2.9972,-1.4732 1.35467,-0.64347 2.35373,-1.13453 2.9972,-1.4732 0.57573,1.524 1.84253,2.54325 3.33266,2.54325 1.7272,0 2.86494,-1.25621 2.86494,-3.00045 -1.04987,0 -2.87179,0.20239 -5.2832,-0.4064 -2.65279,-0.66973 -4.15349,-1.98721 -5.3139,-3.45678 -1.25306,-1.69333 -1.7473,-3.41815 -1.7473,-4.97602 v -21.84937 l 6.858,-0.0338 v 22.08636 h -2.3368 l 5.1816,3.8608 5.1308,-3.8608 h -2.4384 v -22.05258 l 6.807204,-0.0338 z m -23.415624,-8.21263 c 0,2.56589 -1.50221,4.59379 -3.16168,6.08392 -1.76107,1.59173 -4.00112,2.24728 -6.439522,2.24728 -2.4384,0 -4.748609,-0.79587 -6.509668,-2.3876 -1.659472,-1.49013 -3.091532,-3.47044 -3.091532,-5.9436 v -14.6812 c 0,-1.82967 0.955686,-3.88419 2.570327,-5.50504 2.158158,-2.16645 5.168085,-2.91666 9.672475,-2.33244 v -10.19716 h 6.9596 z m -4.3688,-14.478 -5.130802,-3.9624 -5.1816,3.9116 c 0.880531,0 1.659472,0.0169 2.3368,0.0508 v 14.2748 h -2.4384 l 5.1308,3.9624 5.130802,-3.9624 c -0.508,0.0339 -1.28693,0.0339 -2.3368,0 v -14.2748 z m -19.046832,14.3256 c 0,2.74212 -1.39659,4.68893 -3.157649,6.31453 -1.761069,1.59173 -3.98822,2.27067 -6.494351,2.27067 -2.472269,0 -4.583689,-0.67369 -6.310889,-2.23156 -1.6256,-1.45627 -3.23951,-3.63473 -3.23951,-6.04884 v -14.732 c 0,-2.50994 1.50985,-4.46802 3.23705,-5.99202 1.761071,-1.55787 3.959621,-2.23758 6.364149,-2.23758 2.506131,0 4.73856,0.77933 6.46576,2.37106 1.7272,1.59173 3.13544,3.68022 3.13544,6.16334 z m -4.5212,-14.1732 -5.1308,-4.0132 -5.1308,4.0132 h 2.4384 v 14.2748 h -2.4384 l 5.1308,3.9624 5.1308,-3.9624 h -2.3368 v -14.2748 z m -18.468119,-1.9812 h -10.24976 v -2.4384 l -3.91159,5.1308 3.91159,5.1816 v -2.3368 c 3.94707,0 6.19432,0.88167 7.71365,2.41092 1.71229,1.72348 2.95435,4.13478 2.95435,7.04145 0,2.80289 -0.86042,4.72315 -2.16088,6.24839 -1.51966,1.78235 -3.99316,3.50164 -6.42432,3.50164 H 14.83825 v -6.858 h 10.188305 v 2.3368 l 3.9116,-5.1308 -4.0132,-5.1816 v 2.4384 c -0.270931,0.0677 -0.57573,0.1016 -0.9144,0.1016 -1.99813,0 -4.34557,-0.64338 -6.19681,-2.26261 -2.43723,-2.13178 -3.44968,-4.27166 -3.45518,-7.18619 -0.005,-2.47227 0.8636,-4.7244 2.5908,-6.7564 1.76106,-2.032 3.8608,-3.048 6.29919,-3.048 h 9.99576 z"
       transform="matrix(1.1101549,0,0,1.1595374,5.7808767,-38.696346)" />
  </g>
</svg>
