<?xml version="1.0" encoding="UTF-8" standalone="no"?>
<!-- Created with Inkscape (http://www.inkscape.org/) -->

<svg
   xmlns:dc="http://purl.org/dc/elements/1.1/"
   xmlns:cc="http://creativecommons.org/ns#"
   xmlns:rdf="http://www.w3.org/1999/02/22-rdf-syntax-ns#"
   xmlns:svg="http://www.w3.org/2000/svg"
   xmlns="http://www.w3.org/2000/svg"
   xmlns:sodipodi="http://sodipodi.sourceforge.net/DTD/sodipodi-0.dtd"
   xmlns:inkscape="http://www.inkscape.org/namespaces/inkscape"
   width="512"
   height="250"
   viewBox="0 0 135.46666 66.145835"
   version="1.1"
   id="svg8"
   inkscape:version="0.92.1 r"
   sodipodi:docname="logo.svg"
   inkscape:export-filename="/home/petervaro/documents/personal/remote/sodyll/img/logo.png"
   inkscape:export-xdpi="90"
   inkscape:export-ydpi="90">
  <defs
     id="defs2" />
  <sodipodi:namedview
     id="base"
     pagecolor="#ffffff"
     bordercolor="#666666"
     borderopacity="1.0"
     inkscape:pageopacity="0.0"
     inkscape:pageshadow="2"
     inkscape:zoom="1.4"
     inkscape:cx="236.12216"
     inkscape:cy="163.1444"
     inkscape:document-units="px"
     inkscape:current-layer="layer1"
     showgrid="false"
     showguides="true"
     inkscape:guide-bbox="true"
     inkscape:window-width="2560"
     inkscape:window-height="1437"
     inkscape:window-x="0"
     inkscape:window-y="0"
     inkscape:window-maximized="1"
     units="px" />
  <metadata
     id="metadata5">
    <rdf:RDF>
      <cc:Work
         rdf:about="">
        <dc:format>image/svg+xml</dc:format>
        <dc:type
           rdf:resource="http://purl.org/dc/dcmitype/StillImage" />
        <dc:title></dc:title>
      </cc:Work>
    </rdf:RDF>
  </metadata>
  <g
     inkscape:label="Layer 1"
     inkscape:groupmode="layer"
     id="layer1"
     transform="translate(0,-230.85416)">
    <path
       style="font-style:normal;font-variant:normal;font-weight:normal;font-stretch:normal;font-size:25.39999962px;line-height:6.3499999px;font-family:Selima;-inkscape-font-specification:Selima;letter-spacing:0px;word-spacing:0px;fill:#1e3c4d;fill-opacity:1;stroke:none;stroke-width:0.26458332px;stroke-linecap:butt;stroke-linejoin:miter;stroke-opacity:1"
       d="m 110.6757,233.25429 c -0.21724,0.008 -0.43969,0.0335 -0.66434,0.0713 -0.18785,0.0831 -0.37578,0.16536 -0.55734,0.313 -0.56316,0.24919 -1.09519,0.82222 -1.63375,1.32997 -0.88935,0.93242 -1.82515,2.0645 -2.70221,3.12617 -1.27402,1.68637 -2.45269,3.68981 -3.47748,5.93932 -0.48932,1.02473 -1.04904,1.99045 -1.34448,2.99673 -0.443152,0.82472 -0.873952,1.77948 -1.240197,2.72731 -0.48623,1.74176 -1.05504,1.9259 -1.54128,3.66766 -0.98785,2.63727 -1.15173,2.97877 -1.53336,5.81914 -0.11705,1.51097 -0.28604,3.15737 -0.53226,4.68066 -0.0317,1.23165 -0.0813,2.44272 -0.0976,3.64255 -2.85576,3.14416 -6.765863,6.98185 -6.939113,4.67407 0.0429,-0.91704 1.69294,-6.87765 1.85298,-7.93625 0.23385,-1.65253 1.314873,-4.6898 1.524133,-5.23142 0.14466,-0.53546 0.42472,-1.01919 0.3632,-1.66544 0.0337,-0.32926 0.62044,-1.68916 0.72507,-1.95997 0.23999,-0.21851 0.33895,-0.55373 0.31434,-0.81224 0.23692,-0.93549 -0.69857,-2.54179 -1.24016,-2.75108 -0.33542,-0.0984 -0.46398,-0.0856 -0.75017,0.33284 -0.30467,0.22465 -0.40305,0.55925 -0.560003,0.96546 -0.4493,0.76009 -0.83412,1.51445 -1.36035,2.15145 -0.69244,1.63098 -0.12038,0.79338 -0.94827,2.37203 -1.26485,2.468 -16.65497,18.21536 -10.07849,5.78613 0.33852,-0.55394 0.48943,-1.02451 0.71715,-1.37225 0.43085,-0.95396 1.06836,-1.79831 1.31149,-2.66919 0.37235,-0.88319 0.80203,-1.83652 1.05129,-2.64279 0.39083,-0.68931 0.52429,-1.35399 0.80433,-1.83713 0.19091,-0.73548 0.26378,-1.32972 -0.005,-2.08674 -0.22159,-0.95705 -0.63708,-1.89515 -1.60336,-2.45524 l -0.30112,-0.42792 -0.64321,-0.59035 c -0.75393,-0.3847 -2.18503,-1.03138 -2.56351,-1.58225 l -0.68942,-0.39093 c -0.35699,0.36003 -0.46735,0.56567 -0.63662,0.84263 -0.4493,0.76009 -0.71758,1.3734 -1.03148,2.1858 -0.57239,0.83701 -0.87359,3.14832 -1.29828,4.16689 0.0739,0.7755 -0.50725,2.19942 -0.58111,2.79335 -0.17852,2.23415 -0.68061,3.13018 -0.69603,5.02272 0.22462,1.67408 0.0394,1.10407 -0.173,2.29807 -0.12879,0.558 0.89429,1.99611 1.92429,3.30711 -0.29647,0.61045 -0.61252,1.21714 -0.96808,1.81866 -0.94787,2.3726 -0.80246,3.20731 -1.35639,4.2382 -0.28005,0.48315 -0.49601,0.96008 -0.70527,1.50167 -0.60626,1.1663 0.27024,0.10453 -0.40679,1.21243 -0.11079,0.20625 -0.29249,0.35372 -0.40942,0.49528 -0.62163,0.32003 -0.65556,0.64983 -1.92959,0.96677 l 0.0647,-0.008 c -0.0585,0.0708 -0.10389,0.27084 -0.0977,0.33545 -0.39389,-0.0276 -0.67669,-0.26217 -1.01827,-0.42526 -0.1477,-0.18145 -0.21834,-0.24024 -0.49528,-0.40943 0.18156,-0.14772 0.25141,-0.0884 0.25754,-0.023 0.20617,0.11066 0.16081,0.31009 0.23774,0.4332 0.11079,-0.20625 0.31019,-0.15999 0.49791,-0.24305 -0.7724,-0.57855 -1.47428,-1.09829 -2.0128,-1.95997 -0.21233,-0.17532 -0.43052,-0.41569 -0.40282,-0.80959 0.0524,-0.13545 -0.10189,-0.38106 -0.24962,-0.56262 -0.0892,-0.25226 -0.1721,-0.44093 -0.44905,-0.61019 -0.33849,-0.8155 -0.67732,-1.63061 -0.82809,-2.52919 -0.10154,-0.3816 -0.008,-0.78107 -0.23907,-1.15038 -0.0708,-0.0585 -0.0775,-0.12293 -0.0898,-0.25225 l -0.15981,-1.68129 c 0.0277,-0.39389 0.0495,-0.8516 -0.12283,-1.29165 -0.0954,-0.31697 -0.0617,-0.64631 -0.0924,-0.96943 0.11695,-0.14159 0.16277,-0.34181 0.0858,-0.4649 -0.0431,-0.45237 0.05,-0.85196 -0.0515,-1.23356 0.1385,-0.60007 0.22366,-1.06568 0.23907,-1.58885 0.0153,-0.52314 0.0904,-1.1163 0.17037,-1.6456 0.04,-0.26465 0.0796,-0.52905 0.31961,-0.74754 0.26158,-0.67702 -0.0804,-0.84054 0.37509,-1.53601 0.51393,-0.76625 1.0863,-1.6038 1.25865,-2.53315 0.15695,-0.40622 0.4499,-0.7595 0.74225,-1.1134 0.36313,-0.29539 0.71383,-0.72054 0.85848,-1.256 0.13233,-0.66471 0.39995,-1.2762 0.86771,-1.8424 0.28005,-0.48315 0.48358,-1.09047 0.62206,-1.69054 0.0277,-0.39392 0.12559,-0.72919 0.21793,-1.12924 0.20927,-0.54159 0.3546,-1.07715 0.49924,-1.61261 0.2031,-0.60623 0.41202,-1.14665 0.69206,-1.62976 0.16311,-0.34158 0.25494,-0.74194 0.28264,-1.13584 0.0523,-0.13545 -0.0245,-0.25818 0.0277,-0.39359 0.27389,-0.54775 0.21829,-1.12995 0.16906,-1.64693 l 0.0594,-1.44092 c 0.0615,-0.72318 -0.13579,-1.42167 -0.26811,-2.12637 -0.0831,-0.18785 -0.16617,-0.37437 -0.30773,-0.49132 -0.68315,-0.32619 -1.12041,-0.80734 -1.73279,-1.07506 -0.88319,-0.37237 -1.79985,-0.4151 -2.51995,0.2405 -0.48007,0.43696 -0.96667,0.81015 -1.51752,1.18864 -0.24004,0.21851 -0.54439,0.44276 -0.7198,0.65509 -0.46776,0.56623 -1.00011,1.13788 -1.53865,1.64563 -0.52623,0.637 -0.91096,1.39093 -1.29563,2.14485 -0.36007,1.01244 -0.78555,2.03089 -1.21639,2.98486 -0.0923,0.40005 -0.12613,0.72954 -0.28924,1.07112 -0.1385,0.60007 -0.34103,1.20711 -0.54414,1.81334 -0.0862,0.46469 -0.1719,0.92907 -0.32887,1.33526 l -0.243,0.87037 c -0.79706,1.90177 0.14106,6.96403 -2.48693,4.01897 l -1.14243,-0.34733 c -0.20002,-0.0463 -0.33442,-0.0989 -0.52829,-0.0805 -0.3816,0.10146 -0.83382,0.14517 -1.13848,0.36982 -1.75409,0.7539 -3.27826,1.87665 -4.37689,3.35069 -1.11094,1.34476 -1.87332,2.91743 -2.57806,4.41915 -0.44498,0.98527 -0.66269,2.04382 -0.83602,3.12486 -1.2741,0.21417 -2.44957,0.39156 -3.37711,0.53752 -0.51699,0.0493 -0.94807,-0.36642 -0.79111,-0.77263 0.12617,-0.72931 -0.13605,-1.42134 -0.14527,-2.20297 -0.006,-0.0647 -0.11933,-0.5762 -0.14397,-0.83471 l 0.007,0.0647 c -0.0893,-0.25225 -0.0836,-0.18785 -0.007,-0.0647 -0.17847,-0.50466 -0.22207,-0.95657 -0.34207,-1.53203 -0.19079,-0.63393 -0.31601,-1.274 -0.56526,-1.83714 -0.30158,-0.42775 -0.47406,-0.86842 -0.71716,-1.36695 -0.40312,-0.80936 -0.84705,-1.3544 -1.4779,-1.816 -0.47698,-0.21545 -0.90089,-0.56567 -1.31941,-0.85189 -0.34773,-0.22771 -1.89333,-1.38448 -2.41033,-1.33526 -0.72317,-0.0616 -1.49186,0.0772 -2.03656,0.52038 -0.73241,0.52621 -1.342087,0.97498 -1.816005,1.47657 -0.252357,0.0892 -0.368994,0.23053 -0.421308,0.36586 -0.48316,1.08934 -0.707914,2.15431 -0.409426,3.23445 0.335403,1.4679 0.793616,2.85873 1.615249,3.95426 0.0708,0.0585 0.0771,0.12293 0.0832,0.18759 -0.0462,0.20012 -0.0341,0.329 -0.221896,0.41209 -0.858594,1.25552 -1.581081,2.5643 -2.02732,4.04141 -0.470854,1.21861 -0.748408,2.41827 -0.760742,3.65843 -0.01227,1.24016 0.162802,2.39787 0.402827,3.54881 l 0.748852,1.6892 c 0.750854,1.03708 1.605913,1.80279 2.781459,1.82129 0.85242,0.0493 1.76265,0.0276 2.64277,-0.31699 0.18156,-0.14772 0.49282,-0.3073 0.62207,-0.3196 0.6924,-0.26158 1.23156,-0.76913 1.69317,-1.39997 0.0462,-0.20012 0.2269,-0.34835 0.34999,-0.42528 l 0.42132,-0.36586 c 0.36313,-0.29539 0.57878,-0.77232 0.80036,-1.1847 0.39698,-0.62468 0.7941,-1.24877 1.04338,-2.05504 0.34775,-1.14168 0.83129,-2.23228 0.92055,-3.34935 0.0523,-0.13546 0.11005,-0.20498 0.0977,-0.33415 -0.0123,-0.12932 0.17591,-0.21263 0.3698,-0.23104 l 0.19414,-0.0179 c 0.86538,-0.0823 2.24106,-0.26107 3.91596,-0.62603 -0.007,0.57489 0.0461,1.17317 0.10039,1.74336 -0.0462,0.20012 0.0427,0.45207 0.0673,0.71056 0.0892,0.25225 0.17219,0.44015 0.1968,0.69867 0.009,0.78163 0.27624,1.53826 0.73168,2.21222 0.62776,1.114 1.4902,1.94476 2.70882,2.41561 0.81856,0.37853 1.74713,0.55089 2.54108,0.67094 0.59393,0.0739 1.29348,-0.12217 1.6443,-0.54679 0.23388,-0.28312 0.48559,-0.37224 0.79641,-0.53226 1.06784,-0.42773 1.64053,-1.26475 1.78826,-2.45259 0.08,-0.5293 0.2302,-1.00127 0.51641,-1.41978 l 0.35131,-0.42397 c 0.0123,0.12932 0.14757,0.18197 0.22452,0.3051 -0.0339,0.32926 0.0684,0.71056 0.16378,1.02752 0.12615,0.64009 0.31064,1.2097 0.49527,1.77902 0.11386,0.51085 0.42173,1.00222 0.40018,1.46072 0.0369,0.38776 0.0555,0.58244 0.34471,0.88095 0.13541,0.0524 0.14757,0.18069 0.22453,0.30375 0.20924,0.82782 0.72917,1.49646 1.11998,2.17657 0.67392,0.91397 1.41158,1.82213 2.44863,2.44071 1.22168,1.18787 1.26276,0.92283 2.60447,1.31675 0.67086,0.19705 1.19344,0.21264 1.77506,0.15718 0.11695,-0.14159 0.16342,-0.34262 0.22189,-0.41339 0.74472,-0.39696 1.28347,-0.90405 2.02204,-1.36563 0.42159,-0.36621 0.97245,-0.74505 1.25865,-1.16356 0.48623,-0.37235 0.83078,-0.86183 1.17545,-1.3511 l 0.67093,-1.17149 c 0.27389,-0.54778 0.48225,-1.09047 0.62074,-1.69054 0.04,-0.26465 0.14553,-0.5352 0.32094,-0.74753 l 0.78715,-1.31413 c -0.006,-0.0647 0.0525,-0.13443 0.17566,-0.21136 0.10157,-0.98783 -0.0396,-1.10519 0.97601,-2.76692 l 0.51376,-0.76604 c -0.9201,-0.76011 -0.25251,0.0892 -0.0925,-0.96941 0.103,-0.3025 0.22593,-0.55291 0.35924,-0.78188 0.48396,0.59087 0.89733,1.08896 1.04866,1.29961 0.52004,0.66779 2.77551,1.75662 3.56332,1.81203 5.38538,-2.33868 6.63132,-6.3693 2.76296,2.99805 -0.43085,0.95399 -1.50481,4.0552 -1.86486,5.06765 -0.26774,0.61238 -0.97495,1.39734 -1.46734,1.70505 -1.66486,1.00626 -2.9144,1.58243 -4.47461,2.31788 -2.29265,1.26167 -4.61613,2.19974 -6.91799,2.67977 -0.63393,0.19066 -1.39698,0.39351 -2.08939,0.65507 -0.63393,0.19091 -1.07093,1.08073 -0.95092,1.65621 1.12008,3.5451 6.46178,6.23162 10.12999,5.0346 1.03396,-0.0984 2.65639,-0.18708 3.57652,-0.7964 1.29556,-0.77547 2.26083,-1.58519 3.32561,-2.72994 0.44314,-0.82472 1.17563,-1.35167 1.63109,-2.04714 0.59084,-0.64314 0.98778,-1.26736 1.23091,-2.13826 0.32006,-0.74777 0.64029,-1.49571 1.0896,-2.2558 0.59396,-1.29554 1.18833,-2.59142 1.58225,-3.93312 0.0677,-0.65857 0.40667,-1.21166 0.95752,-1.59017 0.12318,-0.0769 0.17455,-0.21289 0.34998,-0.42528 0.36315,-0.29539 5.007033,-2.88957 5.416313,-3.38501 0.15692,-0.40621 0.44895,-0.76026 0.68282,-1.04339 0.45207,-0.41145 1.12022,-2.15819 1.53865,-2.77615 0.0511,0.11808 0.0966,0.24254 0.12805,0.38431 0.32,1.99104 1.89937,2.81906 2.61636,4.1854 0.44314,0.54468 1.784747,0.93809 2.397107,1.20584 0.34161,0.16305 0.86449,0.17864 1.3815,0.12932 1.86793,-0.24306 4.45595,0.22772 6.18232,-1.50167 0.13673,-0.2088 1.18475,-1.44278 2.18053,-2.59788 0.35857,1.9136 1.88605,2.74228 2.58996,4.0837 0.44315,0.54469 1.78474,0.9394 2.39711,1.20714 0.34157,0.16306 0.86581,0.17865 1.38282,0.12932 1.86793,-0.24305 4.4559,0.22772 6.18232,-1.50166 0.22772,-0.34774 3.48898,-3.42649 3.84597,-3.78652 1.35098,-1.56326 0.39548,-0.30312 1.14639,-2.00488 0.10453,-0.2708 0.28586,-0.41871 0.38434,-0.75413 0.0984,-0.33544 0.26835,-0.61312 0.44375,-0.82546 0.12319,-0.0769 0.29813,-0.28847 0.35661,-0.35924 -0.0677,-0.71086 0.89536,-2.23782 1.15694,-2.91485 0.75091,-1.70175 1.09344,-2.21007 2.37467,-1.84373 -0.44844,-0.35042 -0.70805,-0.64425 -1.73279,-0.46622 -0.2134,0.0128 -0.16484,0.21341 -0.25621,0.16383 -0.37082,-0.13802 -1.1161,1.05647 -1.20584,1.33129 h -0.001 c -0.72318,1.30784 -1.50494,3.70817 -2.49486,4.23557 -0.81859,0.9909 -0.86117,1.67743 -1.83977,2.35749 -0.4216,0.36622 -4.03236,1.80271 -4.25934,2.19507 -0.41013,0.13623 -1.59084,0.0813 -1.95601,0.0767 -1.85638,-0.18427 -2.55446,-1.2501 -3.18164,-2.15147 -0.85918,-1.22189 -0.9152,-2.60527 -1.03808,-3.17899 -0.1122,-0.78115 -0.2704,-1.00156 -0.15181,-1.99958 2.13562,-2.6777 3.31644,-5.89342 4.99368,-9.50927 1.05554,-1.92638 2.03381,-3.97552 3.21861,-5.91422 0.67089,-1.17243 1.20014,-2.46095 1.86486,-3.69804 l 1.18205,-2.65598 c 0.61241,-1.10166 1.0311,-2.18523 1.37886,-3.32692 0.26158,-0.67699 0.47016,-1.21897 0.47941,-1.80675 0.12625,-0.72933 0.11782,-1.51027 0.17302,-2.29806 0.0769,-1.24632 -0.20292,-2.13328 -0.90469,-2.65335 -0.70779,-0.58471 -1.56062,-0.63416 -2.45921,-0.4834 -0.18759,0.0831 -0.37577,0.16664 -0.55736,0.31434 -0.56316,0.24918 -1.15592,0.6109 -1.69447,1.11866 -0.88936,0.93242 -1.85554,1.91393 -2.7326,2.9756 -1.27402,1.68637 -2.4223,3.65942 -3.44709,5.90896 -0.48933,1.02473 -1.26038,2.14099 -1.55582,3.14729 -0.44315,0.8247 -1.26621,2.3223 -1.63242,3.27011 -0.48626,1.74178 -1.14616,1.92722 -1.63242,3.669 -0.98786,2.63725 -0.84928,2.6763 -1.23093,5.51668 -0.11706,1.51097 -0.19629,3.0821 -0.44243,4.60539 -0.0473,1.8335 -0.0882,3.67897 0.15718,5.46517 -1.02328,0.83832 -3.16655,2.51671 -3.562,2.28749 -0.33545,-0.0984 -1.25933,-0.20549 -1.41319,-0.45168 -0.46773,-0.8032 -0.69205,-1.10803 -0.97206,-1.99432 -0.0892,-0.25225 -0.52316,-2.75381 -0.6247,-3.13539 -0.0647,-1.36327 -0.26785,-2.12747 -0.13878,-3.50919 0.38472,-3.49276 0.13622,-4.05496 1.81337,-7.67078 1.05555,-1.92641 2.0338,-3.97685 3.2186,-5.91555 0.67089,-1.17246 1.20016,-2.46095 1.86489,-3.69804 l 1.18204,-2.65598 c 0.61242,-1.10169 1.03108,-2.18523 1.37884,-3.32692 0.26158,-0.67702 0.47018,-1.21899 0.47944,-1.80677 0.12625,-0.72931 0.11782,-1.51025 0.17302,-2.29807 0.0769,-1.24632 -0.20318,-2.13324 -0.90469,-2.65334 -0.53086,-0.43852 -1.14286,-0.57571 -1.79486,-0.55338 z m 0.50451,2.8541 c 0.13162,0.003 0.12396,0.17507 0.0501,0.42659 -0.0371,0.98167 -0.13904,1.96888 -0.3698,2.96901 -0.58164,1.42478 -1.0336,2.8372 -1.61524,4.26199 -1.53566,3.73277 -1.80918,4.28106 -3.56333,7.7738 -0.69859,1.56635 -1.25278,2.5974 -2.08676,4.11143 -0.75397,0.98474 -1.02555,-0.48942 -0.88092,-1.02488 0.50165,-2.2649 0.28428,-1.1351 0.85056,-3.40615 l 0.51903,-2.07224 c 0.517,-1.41863 1.03457,-2.83672 1.35772,-4.2369 l 0.77263,-2.16069 c 0.17865,-0.86475 0.43436,-1.60579 0.94827,-2.37204 0.46778,-0.56623 0.73535,-1.178 1.13847,-1.73807 0.49548,-0.96013 1.20875,-1.68101 2.01808,-2.08413 0.18146,-0.14772 0.3632,-0.29555 0.68017,-0.39093 0.0777,-0.0401 0.13699,-0.0578 0.18095,-0.0567 z m -86.911891,1.31017 c -3.578939,0.08 -7.250446,0.55907 -11.05714,2.35618 -0.680094,0.39081 -1.437122,0.65829 -2.181842,1.05525 -2.4495899,1.66787 -4.8216449,3.45949 -6.4742139,5.96442 -1.827989,2.71727 -2.865264,6.20717 -1.145073,8.52134 0.91702,1.41252 2.085853,2.73482 3.612195,3.69804 1.32631,0.91708 2.7047938,1.69899 4.2065209,2.40372 2.455693,1.13558 4.917957,2.33661 7.075143,3.76145 1.320164,0.85245 2.025103,2.08967 2.619007,3.53294 0.230785,0.36928 0.08554,0.9041 -0.453015,1.41185 -0.707799,0.78473 -1.563546,1.38789 -2.366747,1.85564 -1.107845,0.69239 -2.292144,1.26219 -3.406159,1.88997 -1.114,0.62774 -2.316849,1.00288 -3.46163,1.3075 -0.63393,0.19092 -1.2871451,0.18683 -1.8226041,0.0422 -0.4646738,-0.0861 -0.6885208,-0.3907 -0.6669708,-0.84923 0.0033,-0.65238 -0.04611,-1.16924 0.02773,-1.76317 0.03693,-0.98167 0.415054,-1.80056 0.9813018,-2.70221 l 1.0090371,-1.72619 c 0.169269,-0.27697 0.216474,-0.4766 0.133386,-0.66432 -0.09538,-0.31697 -0.121118,-0.575 -0.151864,-0.8981 -0.129245,0.0128 -0.328459,-0.0348 -0.657726,-0.0687 l 0.796397,-0.53224 c -0.535454,-0.14465 -0.737932,0.46249 -1.1133741,0.62867 -0.9816698,-0.0371 -1.2222618,0.18069 -1.6469478,1.19922 -0.110793,0.20625 -0.214659,0.477 -0.396221,0.6247 -0.947836,1.00319 -1.689622,2.11694 -2.302027,3.21861 -0.735504,1.17861 -1.213343,2.33316 -1.561106,3.47484 -0.409319,1.86487 -0.02045,3.1975 1.047341,4.13917 1.209378,1.05862 2.93761,1.41592 4.7070768,1.50828 1.1816971,0.0831 2.3386851,-0.093 3.6650231,-0.54547 0.563158,-0.24919 1.004007,-0.4213 1.496386,-0.72904 0.550849,-0.3785 1.061369,-0.49272 1.642987,-0.54811 0.717023,-0.003 1.486771,-0.14158 2.160711,-0.59697 1.430977,-0.72313 2.714339,-1.62677 3.831437,-2.9069 0.2985,-0.28929 0.584877,-0.70834 0.754135,-0.98528 0.46161,-0.63084 0.781788,-1.37804 1.043376,-2.05506 0.914003,-2.04331 0.992823,-3.94204 0.445084,-5.58535 -0.880078,-2.39419 -2.298132,-4.28109 -4.190669,-5.66593 -1.326318,-0.91706 -2.588215,-1.83977 -4.148413,-2.47373 -0.20004,-0.0463 -0.405317,-0.15743 -0.611493,-0.2681 -1.043207,-0.68318 -2.152149,-1.36069 -3.247676,-1.90846 -2.4864641,-1.45868 -5.5208339,-4.56018 -0.978657,-6.16648 l 2.155429,-0.66169 c 0.627778,-0.25532 1.331761,-0.38761 1.971845,-0.51376 2.255692,-0.28001 4.353894,-0.15411 6.446476,-0.0925 1.046298,0.0307 2.098757,0.12575 3.105037,0.4213 0.276955,0.16919 0.664844,0.13315 1.034132,-0.0976 0.6924,-0.26156 1.244206,-0.64068 1.9243,-1.03149 0.427759,-0.30158 0.719653,-0.65489 0.935073,-1.13187 0.215426,-0.47698 0.566005,-0.90193 0.775272,-1.44355 0.273886,-0.54775 0.535801,-1.22541 0.557351,-1.68391 -0.04,-1.10479 0.24269,-2.23985 0.65508,-3.38767 0.0985,-0.33545 0.0678,-0.65865 0.10169,-0.98791 -0.0123,-0.12932 -0.0311,-0.32289 0.0212,-0.4583 0.14465,-0.53546 -0.0736,-0.77603 -0.42132,-1.00375 -0.901649,-0.56626 -2.024581,-0.71981 -3.200124,-0.73829 z m 101.643301,0.0102 c 0.13163,0.003 0.12396,0.17507 0.0501,0.42658 -0.0371,0.98167 -0.13904,1.96886 -0.3698,2.96901 -0.58164,1.42479 -1.0336,2.83718 -1.61527,4.262 -1.53563,3.73277 -1.80917,4.28103 -3.56332,7.77379 -0.69857,1.56636 -1.25274,2.5974 -2.08673,4.11144 -0.64723,1.32626 -2.93612,6.82671 -3.55937,6.61816 0.0961,-2.43567 0.64487,-4.53881 1.33922,-6.78855 l 2.10524,-6.12157 c 0.51703,-1.41863 1.69887,-2.83673 2.02204,-4.2369 l 0.77261,-2.4024 c 0.17865,-0.86474 0.3736,-1.57542 0.88754,-2.34167 0.46776,-0.5662 0.73532,-1.1793 1.13847,-1.73938 0.49546,-0.96012 1.20872,-1.67967 2.01806,-2.08279 0.18146,-0.14772 0.36322,-0.29555 0.68019,-0.39093 0.0777,-0.0401 0.13699,-0.0578 0.18095,-0.0567 z m -57.71321,1.31412 c 0.20954,-0.0128 0.38758,0.13265 0.58376,0.48074 0.10154,0.38158 0.20211,0.76392 0.23904,1.15168 0.0954,1.68637 0.19171,3.37183 -0.31301,4.9197 -0.10464,0.27081 -0.0748,0.5947 -0.0502,0.85319 0.0369,0.38776 -0.003,0.65249 -0.1017,0.98791 -0.477,1.154 -0.89505,2.23675 -1.2428,3.37844 -0.37237,0.88317 -0.88596,1.6489 -1.33526,2.40899 -0.4493,0.76011 -0.70447,1.50197 -1.08299,2.32053 -2.44346,3.10191 -1.3574,-1.23972 -1.1081,-3.4154 0.0462,-1.56944 0.70427,-2.87089 0.94432,-4.45879 0.0215,-0.45853 0.1728,-0.92915 0.32358,-1.39997 0.0923,-0.40005 0.12542,-0.73046 0.0238,-1.11204 -0.0308,-0.32312 0.081,-0.5282 0.38566,-0.75283 0.29235,-0.35389 0.57779,-0.7734 0.72244,-1.30883 0.22158,-0.41237 0.37845,-0.81774 0.27075,-1.26395 -0.0184,-0.19399 0.0925,-0.4009 0.13868,-0.60091 0.28004,-0.48315 0.6896,-0.97822 0.82809,-1.57829 0.0462,-0.20012 0.23437,-0.28239 0.35132,-0.42395 0.1604,-0.11322 0.2969,-0.1784 0.42263,-0.18632 z m -34.78668,17.044 c 0.18016,-0.0179 0.35285,0.0179 0.5098,0.12421 0.47698,0.21545 0.82429,0.44414 1.2428,0.73036 0.40621,0.15693 0.63083,0.46081 0.91395,0.69469 0.48929,0.34467 0.79721,0.83691 1.05262,1.4647 0.26156,0.69239 0.44671,1.26148 0.64979,2.02468 0.23695,0.4339 0.29134,1.01595 0.21132,1.54524 1.18778,4.25597 -2.11374,5.87451 -4.33859,2.36938 -1.78176,-1.59099 -3.781355,-4.79137 -2.27034,-7.41323 0.33255,-0.40256 1.24802,-1.46336 2.02864,-1.53998 z m 21.56354,7.61532 c 0.10854,-0.0256 0.20149,0.003 0.28527,0.0621 -0.31791,0.17124 -0.6409,0.33539 -0.96809,0.49528 0.25939,-0.33189 0.49006,-0.5133 0.68282,-0.55736 z m 0.62338,0.86507 c 0.0785,0.62095 0.0181,1.54765 -0.2166,2.7075 -0.0215,0.45853 0.0217,0.91149 0.12942,1.3577 l -0.005,1.3049 c 0.0123,0.12932 -0.04,0.26432 -0.0277,0.39356 -0.20927,0.54162 -0.49048,1.02418 -0.84131,1.44884 -0.52008,0.70164 -1.10432,1.40979 -1.55978,2.10526 -0.29235,0.35387 -0.57786,0.77253 -1.0764,1.01564 -0.0708,-0.0585 -0.20691,-0.11118 -0.21923,-0.2405 -0.76316,-1.16635 -0.7513,-2.40587 -0.60357,-3.59371 l 0.73301,-1.89526 0.2681,-0.61282 c 0.39614,-0.95008 0.57709,-1.82167 1.11602,-2.61899 0.39416,-0.2129 0.78725,-0.43328 1.17941,-0.66962 0.38102,-0.2295 0.7552,-0.46499 1.12394,-0.70263 z m -19.47679,5.31727 c 0.29062,-0.008 0.62207,0.0455 1.00904,0.17175 -0.15079,0.47082 -0.22534,1.06484 -0.49924,1.61259 -0.5047,1.5479 -1.13853,3.10773 -2.12637,4.3756 l -0.23904,0.21928 c -0.0585,0.0708 -0.0596,0.0705 -0.12416,0.0767 -0.33543,-0.0984 -0.6245,-0.39708 -0.78451,-0.70792 -0.0769,-0.12318 -0.21205,-0.17532 -0.0951,-0.31696 -0.0308,-0.32313 -0.0682,-0.71015 -0.0344,-1.03941 0.27698,-1.20016 0.35173,-1.79468 0.96413,-2.89637 0.55163,-0.88394 1.05774,-1.47013 1.92959,-1.49505 z m 27.30739,3.14597 c 0.48929,0.34467 0.52599,0.7322 0.75678,1.10149 0.23694,0.43389 0.39691,0.74462 0.56924,1.1847 -0.12925,0.0128 -0.14047,-0.11757 -0.1466,-0.18223 -0.44929,-0.60929 -0.90555,-1.28225 -1.17941,-2.10391 z m 1.32733,2.28619 0.1466,0.18095 -0.12942,0.0128 c 0.0585,-0.0708 0.0536,-0.13443 -0.0171,-0.1927 z m -1.47129,0.9879 0.07,0.058 c -0.0646,0.005 -0.0641,0.005 -0.19943,-0.0463 z m 1.15168,0.22721 c 0.11064,-0.0258 0.1305,0.0578 0.18358,0.10172 0.49544,0.40931 0.86103,0.83144 1.10413,1.32997 0.21233,0.17533 0.48967,0.34444 0.56659,0.46755 l 0.025,0.25755 c -0.20617,-0.11092 -0.40681,-0.15616 -0.42527,-0.34999 -0.57238,-0.53239 -1.02088,-1.1424 -1.59941,-1.7394 0.0615,-0.0386 0.10842,-0.0588 0.1453,-0.0675 z m -0.91527,0.206 0.007,0.0647 -0.0647,0.008 z m 0.30113,0.42791 c 0.006,0.0647 0.14179,0.11756 0.14792,0.18222 l -0.12942,0.0128 c -0.006,-0.0647 -0.006,-0.0644 -0.0766,-0.12293 z m -3.24635,3.56992 0.21264,0.17558 c 0.006,0.0647 -0.0456,0.19909 0.025,0.25754 l 0.58113,-0.0555 c -0.12925,0.0128 -0.25215,0.0894 -0.18754,0.0833 l 2.56353,1.58222 c 0.20617,0.11093 0.28294,0.23411 0.49527,0.40944 -0.2585,0.0256 -0.45223,0.0424 -0.523,-0.0153 -1.12939,-0.21851 -1.90211,-0.7966 -2.69298,-1.56903 l -0.30772,-0.49263 c 0,0 -0.0704,-0.0583 -0.0766,-0.12293 -0.1354,-0.0524 -0.20648,-0.11117 -0.21264,-0.17558 z m 2.59787,1.25204 0.005,0.0647 -0.0647,0.008 c -0.006,-0.0647 0.0594,-0.0713 0.0594,-0.0713 z m 14.70368,4.22105 c 1.41733,-0.13366 0.16766,1.54806 -1.39997,3.44579 -2.78816,4.96062 -10.51537,2.56653 -8.11193,-0.27076 0.44007,-0.17226 0.82178,-0.27311 1.33262,-0.38697 1.46174,-0.40002 2.9235,-0.80069 4.37293,-1.32997 1.96663,-0.96163 3.16212,-1.39728 3.80635,-1.45809 z"
       id="path4489"
       inkscape:connector-curvature="0" />
  </g>
</svg>
